<svg width="30" height="30" viewBox="0 0 30 30" fill="none" xmlns="http://www.w3.org/2000/svg">
<path fill-rule="evenodd" clip-rule="evenodd" d="M17.1468 19.9364C18.9088 19.9364 20.3429 21.2938 20.3429 22.9622V27.2532C20.3429 27.6117 20.6444 27.8991 21.0307 27.9075H23.82C26.018 27.9075 27.8049 26.2251 27.8049 24.1577V11.9877C27.7946 11.2762 27.439 10.6066 26.8288 10.1616L17.1805 2.82664C15.8854 1.84873 14.0737 1.84873 12.7741 2.82943L3.19171 10.1588C2.55805 10.6178 2.20244 11.2874 2.19512 12.0114V24.1577C2.19512 26.2251 3.98195 27.9075 6.18 27.9075H8.99561C9.3922 27.9075 9.71415 27.6076 9.71415 27.2393C9.71415 27.1584 9.72439 27.0775 9.74195 27.0007V22.9622C9.74195 21.3035 11.1673 19.9476 12.9161 19.9364H17.1468ZM23.82 30H21.0044C19.3917 29.9637 18.1478 28.757 18.1478 27.2532V22.9622C18.1478 22.4474 17.6985 22.0289 17.1468 22.0289H12.9234C12.3834 22.0317 11.9371 22.4516 11.9371 22.9622V27.2393C11.9371 27.3439 11.9224 27.4443 11.8917 27.5392C11.7337 28.9203 10.4956 30 8.99561 30H6.18C2.77171 30 0 27.3788 0 24.1577V12.0016C0.0146341 10.615 0.684878 9.34551 1.84244 8.5099L11.4059 1.19308C13.5117 -0.397228 16.4459 -0.397228 18.5473 1.19029L28.1795 8.51408C29.3107 9.33574 29.981 10.6024 30 11.9723V24.1577C30 27.3788 27.2283 30 23.82 30Z" fill="#771F98"/>
</svg>
