<svg width="24" height="20" viewBox="0 0 24 20" fill="none" xmlns="http://www.w3.org/2000/svg">
<path fill-rule="evenodd" clip-rule="evenodd" d="M3.59456 15.0044C3.59456 16.732 5.02176 18.138 6.77643 18.138H8.09483C8.53643 18.138 8.89483 18.4911 8.89483 18.9262C8.89483 19.3612 8.53643 19.7143 8.09483 19.7143H6.77643C4.13963 19.7143 1.99456 17.6011 1.99456 15.0044L1.9936 11.5108L0.8 11.5118C0.3584 11.5118 0 11.1587 0 10.7237C0 10.2886 0.3584 9.93553 0.8 9.93553L2.77929 9.93431C2.78437 9.93422 2.78946 9.93417 2.79456 9.93417L2.8096 9.93459L21.1891 9.93433C21.1945 9.93422 21.1999 9.93417 21.2053 9.93417L21.2203 9.93459L23.2 9.93553C23.6416 9.93553 24 10.2886 24 10.7237C24 11.1587 23.6416 11.5118 23.2 11.5118L22.0053 11.5108V15.0044C22.0053 17.6011 19.8603 19.7143 17.2235 19.7143H15.9381C15.4965 19.7143 15.1381 19.3612 15.1381 18.9262C15.1381 18.4911 15.4965 18.138 15.9381 18.138H17.2235C18.9781 18.138 20.4053 16.732 20.4053 15.0044V11.5108H3.5936L3.59456 15.0044ZM17.2234 0C19.8602 0 22.0052 2.11323 22.0052 4.70879V6.29975C22.0052 6.7348 21.6468 7.08788 21.2052 7.08788C20.7636 7.08788 20.4052 6.7348 20.4052 6.29975V4.70879C20.4052 2.98227 18.978 1.57625 17.2234 1.57625H15.938C15.4964 1.57625 15.138 1.22317 15.138 0.788126C15.138 0.35308 15.4964 0 15.938 0H17.2234ZM8.09504 0C8.53664 0 8.89504 0.35308 8.89504 0.788126C8.89504 1.22317 8.53664 1.57625 8.09504 1.57625H6.77664C5.02197 1.57625 3.59477 2.98227 3.59477 4.70879V6.29975C3.59477 6.7348 3.23637 7.08788 2.79477 7.08788C2.35317 7.08788 1.99477 6.7348 1.99477 6.29975V4.70879C1.99477 2.11323 4.13984 0 6.77664 0H8.09504Z" fill="black"/>
</svg>
